<svg width="1644" height="1151" viewBox="0 0 1644 1151" fill="none" xmlns="http://www.w3.org/2000/svg">
<path d="M1166.48 423.337L1439.28 658.94H798.608H573.339H374.936H172.401L672.54 270.402L992.878 534.939L1166.48 423.337Z" fill="#F4FDE5"/>
<path d="M129 658.94H172.401M1513.68 658.94H1439.28M1439.28 658.94L1166.48 423.337L992.878 534.939M1439.28 658.94H798.608M992.878 534.939L672.54 270.402L172.401 658.94M992.878 534.939L798.608 658.94M172.401 658.94H374.936M374.936 658.94L573.339 499.805M374.936 658.94H573.339M573.339 658.94L668.407 576.273M573.339 658.94H798.608" stroke="#047854" stroke-width="20" stroke-linecap="round" stroke-linejoin="round"/>
<path d="M1005.28 656.874L1129.28 565.939" stroke="#047854" stroke-width="20" stroke-linecap="round" stroke-linejoin="round"/>
<circle cx="984.611" cy="185.668" r="72.6677" fill="#F4FDE5" stroke="#047854" stroke-width="20"/>
<path d="M89.92 1053V874.44H133.12L137.08 898.2H138.52C146.2 890.52 154.96 883.92 164.8 878.4C174.88 872.88 186.64 870.12 200.08 870.12C220.24 870.12 235 876.6 244.36 889.56C253.72 902.52 258.4 920.28 258.4 942.84V1053H205.48V949.68C205.48 937.68 203.44 928.92 199.36 923.4C195.52 917.88 188.8 915.12 179.2 915.12C172 915.12 165.64 916.8 160.12 920.16C154.84 923.28 149.08 927.84 142.84 933.84V1053H89.92ZM360.499 1057.32C348.499 1057.32 338.059 1054.92 329.179 1050.12C320.539 1045.32 313.819 1038.84 309.019 1030.68C304.219 1022.52 301.819 1013.4 301.819 1003.32C301.819 983.4 310.819 968.16 328.819 957.6C347.059 947.04 377.299 940.56 419.539 938.16C418.819 932.64 417.019 927.96 414.139 924.12C411.259 920.28 407.059 917.4 401.539 915.48C396.259 913.32 389.539 912.24 381.379 912.24C375.619 912.24 369.859 912.96 364.099 914.4C358.339 915.6 352.339 917.52 346.099 920.16C340.099 922.56 333.739 925.44 327.019 928.8L308.299 894.24C316.459 889.44 324.979 885.24 333.859 881.64C342.979 878.04 352.339 875.28 361.939 873.36C371.779 871.2 381.739 870.12 391.819 870.12C408.619 870.12 423.019 873.12 435.019 879.12C447.019 884.88 456.259 893.76 462.739 905.76C469.219 917.52 472.459 932.52 472.459 950.76V1053H429.259L425.299 1032.84H423.859C414.979 1039.56 405.139 1045.32 394.339 1050.12C383.539 1054.92 372.259 1057.32 360.499 1057.32ZM377.419 1016.28C385.339 1016.28 392.779 1014.72 399.739 1011.6C406.699 1008.24 413.299 1004.16 419.539 999.36V969.84C402.019 970.8 388.339 972.6 378.499 975.24C368.899 977.88 362.179 981.24 358.339 985.32C354.499 989.4 352.579 994.08 352.579 999.36C352.579 1002.96 353.539 1006.08 355.459 1008.72C357.619 1011.36 360.499 1013.28 364.099 1014.48C367.939 1015.68 372.379 1016.28 377.419 1016.28ZM635.399 1057.32C616.439 1057.32 601.319 1054.08 590.039 1047.6C578.999 1040.88 570.959 1031.64 565.919 1019.88C560.879 1008.12 558.359 994.44 558.359 978.84V915.84H513.719V876.6L560.879 874.44L567.719 819.72H611.279V874.44H686.879V915.84H611.279V978.48C611.279 987.36 612.599 994.56 615.239 1000.08C617.879 1005.6 621.959 1009.68 627.479 1012.32C632.999 1014.72 640.079 1015.92 648.719 1015.92C655.679 1015.92 662.039 1015.32 667.799 1014.12C673.559 1012.92 679.079 1011.36 684.359 1009.44L693.719 1047.6C685.799 1050 677.039 1052.16 667.439 1054.08C658.079 1056.24 647.399 1057.32 635.399 1057.32ZM819.578 1057.32C803.978 1057.32 789.218 1053.72 775.298 1046.52C761.378 1039.08 750.098 1028.4 741.458 1014.48C732.818 1000.32 728.498 983.4 728.498 963.72C728.498 944.04 732.818 927.24 741.458 913.32C750.098 899.16 761.378 888.48 775.298 881.28C789.218 873.84 803.978 870.12 819.578 870.12C835.178 870.12 849.938 873.84 863.858 881.28C877.778 888.48 889.058 899.16 897.698 913.32C906.338 927.24 910.658 944.04 910.658 963.72C910.658 983.4 906.338 1000.32 897.698 1014.48C889.058 1028.4 877.778 1039.08 863.858 1046.52C849.938 1053.72 835.178 1057.32 819.578 1057.32ZM819.578 1014.48C827.738 1014.48 834.458 1012.44 839.738 1008.36C845.258 1004.28 849.338 998.4 851.978 990.72C854.858 983.04 856.298 974.04 856.298 963.72C856.298 953.4 854.858 944.4 851.978 936.72C849.338 929.04 845.258 923.16 839.738 919.08C834.458 915 827.738 912.96 819.578 912.96C811.418 912.96 804.578 915 799.058 919.08C793.778 923.16 789.698 929.04 786.818 936.72C784.178 944.4 782.858 953.4 782.858 963.72C782.858 974.04 784.178 983.04 786.818 990.72C789.698 998.4 793.778 1004.28 799.058 1008.36C804.578 1012.44 811.418 1014.48 819.578 1014.48ZM1007.72 1057.32C987.318 1057.32 972.558 1050.84 963.438 1037.88C954.318 1024.92 949.758 1007.16 949.758 984.6V874.44H1002.68V977.76C1002.68 989.76 1004.48 998.52 1008.08 1004.04C1011.92 1009.56 1018.76 1012.32 1028.6 1012.32C1035.32 1012.32 1041.32 1010.88 1046.6 1008C1051.88 1005.12 1057.52 999.72 1063.52 991.8V874.44H1116.44V1053H1073.24L1069.28 1027.44H1067.84C1059.92 1036.32 1051.16 1043.52 1041.56 1049.04C1031.96 1054.56 1020.68 1057.32 1007.72 1057.32ZM1185.06 1053V874.44H1228.26L1232.58 913.32H1233.66C1242.54 898.68 1253.22 887.88 1265.7 880.92C1278.42 873.72 1291.86 870.12 1306.02 870.12C1313.94 870.12 1320.3 870.72 1325.1 871.92C1330.14 873.12 1335.3 874.92 1340.58 877.32L1329.78 921.6C1324.26 919.92 1319.22 918.72 1314.66 918C1310.34 917.04 1304.82 916.56 1298.1 916.56C1287.06 916.56 1276.14 919.8 1265.34 926.28C1254.78 932.76 1245.66 944.04 1237.98 960.12V1053H1185.06ZM1465.72 1057.32C1449.88 1057.32 1434.16 1054.68 1418.56 1049.4C1402.96 1043.88 1389.52 1037.4 1378.24 1029.96L1400.92 996.84C1411.72 1003.8 1423.12 1009.08 1435.12 1012.68C1447.36 1016.28 1459.96 1018.08 1472.92 1018.08C1482.76 1018.08 1489.96 1016.64 1494.52 1013.76C1499.08 1010.64 1501.36 1007.04 1501.36 1002.96C1501.36 1000.32 1500.64 998.16 1499.2 996.48C1498 994.56 1495.72 992.88 1492.36 991.44C1489.24 989.76 1484.8 988.2 1479.04 986.76C1473.52 985.32 1466.32 983.64 1457.44 981.72C1433.2 976.44 1415.8 969.24 1405.24 960.12C1394.68 951 1389.4 939.6 1389.4 925.92C1389.4 909.12 1396.72 895.68 1411.36 885.6C1426 875.28 1446.04 870.12 1471.48 870.12C1487.56 870.12 1502.08 872.76 1515.04 878.04C1528.24 883.08 1539.52 888.6 1548.88 894.6L1525.12 926.28C1516.24 920.76 1506.76 916.56 1496.68 913.68C1486.6 910.8 1476.64 909.36 1466.8 909.36C1461.28 909.36 1456.72 909.96 1453.12 911.16C1449.52 912.12 1446.76 913.8 1444.84 916.2C1442.92 918.36 1441.96 920.76 1441.96 923.4C1441.96 928.2 1445.08 931.8 1451.32 934.2C1457.56 936.36 1468.24 939.12 1483.36 942.48C1501.6 946.56 1515.88 951.24 1526.2 956.52C1536.52 961.8 1543.6 967.92 1547.44 974.88C1551.52 981.6 1553.56 989.88 1553.56 999.72C1553.56 1010.52 1550.2 1020.24 1543.48 1028.88C1537 1037.52 1527.16 1044.48 1513.96 1049.76C1501 1054.8 1484.92 1057.32 1465.72 1057.32Z" fill="#047854"/>
</svg>
